<mxfile host="app.diagrams.net" modified="2024-03-13T19:28:27.825Z" agent="Mozilla/5.0 (Windows NT 10.0; Win64; x64; rv:123.0) Gecko/20100101 Firefox/123.0" etag="raJEfXKWnamuSKHAVIwo" version="24.0.6" type="device">
  <diagram name="Pagina-1" id="0Sc7jq3V0cDmXGeTjLbP">
    <mxGraphModel dx="2462" dy="928" grid="1" gridSize="10" guides="1" tooltips="1" connect="1" arrows="1" fold="1" page="1" pageScale="1" pageWidth="827" pageHeight="1169" math="0" shadow="0">
      <root>
        <mxCell id="0" />
        <mxCell id="1" parent="0" />
        <mxCell id="FzlCZS_h-GiPE4W1MYu4-2" value="&lt;div&gt;API&lt;/div&gt;&lt;div&gt;&lt;br&gt;&lt;/div&gt;&lt;div&gt;wait for POST then GET the rest&lt;br&gt;&lt;/div&gt;&lt;div&gt;&lt;br&gt;&lt;/div&gt;&lt;div&gt;/ticker/post&lt;/div&gt;&lt;div&gt;/ticker/get&lt;/div&gt;&lt;div&gt;/ticker/get/{id}&lt;br&gt;&lt;/div&gt;" style="whiteSpace=wrap;html=1;aspect=fixed;" vertex="1" parent="1">
          <mxGeometry x="360" y="340" width="190" height="190" as="geometry" />
        </mxCell>
        <mxCell id="FzlCZS_h-GiPE4W1MYu4-3" value="Tickers&lt;br&gt;Users&lt;br&gt;UserTicker" style="shape=cylinder3;whiteSpace=wrap;html=1;boundedLbl=1;backgroundOutline=1;size=15;" vertex="1" parent="1">
          <mxGeometry x="400" y="610" width="110" height="140" as="geometry" />
        </mxCell>
        <mxCell id="FzlCZS_h-GiPE4W1MYu4-4" value="" style="endArrow=classic;html=1;rounded=0;entryX=0.5;entryY=1;entryDx=0;entryDy=0;exitX=0.436;exitY=0.325;exitDx=0;exitDy=0;exitPerimeter=0;" edge="1" parent="1" source="FzlCZS_h-GiPE4W1MYu4-3" target="FzlCZS_h-GiPE4W1MYu4-2">
          <mxGeometry width="50" height="50" relative="1" as="geometry">
            <mxPoint x="390" y="590" as="sourcePoint" />
            <mxPoint x="440" y="540" as="targetPoint" />
          </mxGeometry>
        </mxCell>
        <mxCell id="FzlCZS_h-GiPE4W1MYu4-5" value="" style="endArrow=classic;html=1;rounded=0;" edge="1" parent="1" target="FzlCZS_h-GiPE4W1MYu4-2">
          <mxGeometry width="50" height="50" relative="1" as="geometry">
            <mxPoint x="250" y="380" as="sourcePoint" />
            <mxPoint x="320" y="460" as="targetPoint" />
          </mxGeometry>
        </mxCell>
        <mxCell id="FzlCZS_h-GiPE4W1MYu4-6" value="&lt;div&gt;tradingview webhook&lt;/div&gt;&lt;div&gt;post&lt;/div&gt;" style="whiteSpace=wrap;html=1;" vertex="1" parent="1">
          <mxGeometry x="110" y="340" width="180" height="60" as="geometry" />
        </mxCell>
        <mxCell id="FzlCZS_h-GiPE4W1MYu4-7" value="" style="endArrow=classic;html=1;rounded=0;entryX=0;entryY=0.5;entryDx=0;entryDy=0;" edge="1" parent="1" target="FzlCZS_h-GiPE4W1MYu4-2">
          <mxGeometry width="50" height="50" relative="1" as="geometry">
            <mxPoint x="235" y="469.5" as="sourcePoint" />
            <mxPoint x="345" y="550.5" as="targetPoint" />
          </mxGeometry>
        </mxCell>
        <mxCell id="FzlCZS_h-GiPE4W1MYu4-8" value="&lt;div&gt;coinmarketcap.com/api&lt;/div&gt;&lt;div&gt;get&lt;br&gt;&lt;/div&gt;" style="whiteSpace=wrap;html=1;" vertex="1" parent="1">
          <mxGeometry x="120" y="450" width="145" height="60" as="geometry" />
        </mxCell>
        <mxCell id="FzlCZS_h-GiPE4W1MYu4-9" value="&lt;div&gt;Appstore scraper&lt;/div&gt;&lt;div&gt;get&lt;br&gt;&lt;/div&gt;" style="rounded=0;whiteSpace=wrap;html=1;" vertex="1" parent="1">
          <mxGeometry x="120" y="545" width="140" height="80" as="geometry" />
        </mxCell>
        <mxCell id="FzlCZS_h-GiPE4W1MYu4-10" value="" style="endArrow=classic;html=1;rounded=0;entryX=-0.016;entryY=0.7;entryDx=0;entryDy=0;exitX=1;exitY=0.363;exitDx=0;exitDy=0;exitPerimeter=0;entryPerimeter=0;" edge="1" parent="1" source="FzlCZS_h-GiPE4W1MYu4-9" target="FzlCZS_h-GiPE4W1MYu4-2">
          <mxGeometry width="50" height="50" relative="1" as="geometry">
            <mxPoint x="245" y="479.5" as="sourcePoint" />
            <mxPoint x="370" y="445" as="targetPoint" />
            <Array as="points" />
          </mxGeometry>
        </mxCell>
        <mxCell id="FzlCZS_h-GiPE4W1MYu4-13" value="" style="endArrow=classic;startArrow=classic;html=1;rounded=0;" edge="1" parent="1" source="FzlCZS_h-GiPE4W1MYu4-2" target="FzlCZS_h-GiPE4W1MYu4-14">
          <mxGeometry width="50" height="50" relative="1" as="geometry">
            <mxPoint x="590" y="380" as="sourcePoint" />
            <mxPoint x="600" y="300" as="targetPoint" />
          </mxGeometry>
        </mxCell>
        <mxCell id="FzlCZS_h-GiPE4W1MYu4-14" value="Discord Bot" style="rounded=0;whiteSpace=wrap;html=1;" vertex="1" parent="1">
          <mxGeometry x="590" y="250" width="120" height="60" as="geometry" />
        </mxCell>
        <mxCell id="FzlCZS_h-GiPE4W1MYu4-15" value="discord channel" style="rounded=0;whiteSpace=wrap;html=1;" vertex="1" parent="1">
          <mxGeometry x="760" y="250" width="120" height="60" as="geometry" />
        </mxCell>
        <mxCell id="FzlCZS_h-GiPE4W1MYu4-17" value="" style="endArrow=classic;startArrow=classic;html=1;rounded=0;exitX=1;exitY=0.5;exitDx=0;exitDy=0;" edge="1" parent="1" source="FzlCZS_h-GiPE4W1MYu4-14" target="FzlCZS_h-GiPE4W1MYu4-15">
          <mxGeometry width="50" height="50" relative="1" as="geometry">
            <mxPoint x="670" y="240" as="sourcePoint" />
            <mxPoint x="720" y="190" as="targetPoint" />
          </mxGeometry>
        </mxCell>
        <mxCell id="FzlCZS_h-GiPE4W1MYu4-19" value="" style="endArrow=classic;html=1;rounded=0;" edge="1" parent="1" source="FzlCZS_h-GiPE4W1MYu4-2" target="FzlCZS_h-GiPE4W1MYu4-20">
          <mxGeometry width="50" height="50" relative="1" as="geometry">
            <mxPoint x="610" y="500" as="sourcePoint" />
            <mxPoint x="650" y="440" as="targetPoint" />
            <Array as="points">
              <mxPoint x="620" y="430" />
            </Array>
          </mxGeometry>
        </mxCell>
        <mxCell id="FzlCZS_h-GiPE4W1MYu4-20" value="Website" style="rounded=0;whiteSpace=wrap;html=1;" vertex="1" parent="1">
          <mxGeometry x="650" y="410" width="120" height="60" as="geometry" />
        </mxCell>
      </root>
    </mxGraphModel>
  </diagram>
</mxfile>
